HIERARCHY
ROOT hips
{
  OFFSET 0 11.86390953 0.3628582958
  CHANNELS 6 Xposition Yposition Zposition Yrotation Xrotation Zrotation
  JOINT spine
  {
    OFFSET 0 0.05383551117999996 0
    CHANNELS 3 Yrotation Xrotation Zrotation
    JOINT chest
    {
      OFFSET 0 0.6394558760401424 0
      CHANNELS 3 Yrotation Xrotation Zrotation
      JOINT neck
      {
        OFFSET 0 2.720089088562982 0
        CHANNELS 3 Yrotation Xrotation Zrotation
        JOINT head
        {
          OFFSET 0 0.37880844870545777 0
          CHANNELS 3 Yrotation Xrotation Zrotation
          JOINT rightEye
          {
            OFFSET -0.42867780714 0.7547055649100001 0.7381831347
            CHANNELS 3 Yrotation Xrotation Zrotation
            End Site
            {
              OFFSET -0.42867780714 0.7547055649100001 0.7381831347
            }
          }
          JOINT leftEye
          {
            OFFSET 0.428676479 0.7547055559999993 0.7381844503
            CHANNELS 3 Yrotation Xrotation Zrotation
            End Site
            {
              OFFSET 0.428676479 0.7547055559999993 0.7381844503
            }
          }
          JOINT jaw
          {
            OFFSET -0.18933892286100001 1.5626303011000007 1.137441874206
            CHANNELS 3 Yrotation Xrotation Zrotation
            End Site
            {
              OFFSET -0.18933892286100001 1.5626303011000007 1.137441874206
            }
          }
        }
      }
      JOINT rightShoulder
      {
        OFFSET -0.6795351508 2.0665205 0
        CHANNELS 3 Yrotation Xrotation Zrotation
        JOINT rightUpperArm
        {
          OFFSET -0.7287400483531672 0 0
          CHANNELS 3 Yrotation Xrotation Zrotation
          JOINT rightLowerArm
          {
            OFFSET -1.9872982039174532 0 0
            CHANNELS 3 Yrotation Xrotation Zrotation
            JOINT rightHand
            {
              OFFSET -2.6451847532219275 0 0
              CHANNELS 3 Yrotation Xrotation Zrotation
              JOINT rightLittleProximal
              {
                OFFSET -0.8008804099999995 -0.09592044000000044 -0.26183688629999996
                CHANNELS 3 Yrotation Xrotation Zrotation
                JOINT rightLittleIntermediate
                {
                  OFFSET -0.2473955153999997 -0.02541697026000067 0.002370178700999967
                  CHANNELS 3 Yrotation Xrotation Zrotation
                  JOINT rightLittleDistal
                  {
                    OFFSET -0.163687229200001 -0.015790700860001117 -0.0004274845300000635
                    CHANNELS 3 Yrotation Xrotation Zrotation
                    End Site
                    {
                      OFFSET -0.163687229200001 -0.015790700860001117 -0.0004274845300000635
                    }
                  }
                }
              }
              JOINT rightRingProximal
              {
                OFFSET -0.8393382799999985 -0.06223833561000025 -0.09213143500000005
                CHANNELS 3 Yrotation Xrotation Zrotation
                JOINT rightRingIntermediate
                {
                  OFFSET -0.3284497260000011 -0.03264224524000103 0.009408593183000052
                  CHANNELS 3 Yrotation Xrotation Zrotation
                  JOINT rightRingDistal
                  {
                    OFFSET -0.19447660429999902 -0.021730899850000318 0.003074347969000052
                    CHANNELS 3 Yrotation Xrotation Zrotation
                    End Site
                    {
                      OFFSET -0.19447660429999902 -0.021730899850000318 0.003074347969000052
                    }
                  }
                }
              }
              JOINT rightMiddleProximal
              {
                OFFSET -0.8473005199999989 -0.06735503500000095 0.10541820299999995
                CHANNELS 3 Yrotation Xrotation Zrotation
                JOINT rightMiddleIntermediate
                {
                  OFFSET -0.3450455799999995 -0.02481901642000084 0.019012570390000032
                  CHANNELS 3 Yrotation Xrotation Zrotation
                  JOINT rightMiddleDistal
                  {
                    OFFSET -0.23542332000000088 -0.025003910029999243 0.0075583457949999905
                    CHANNELS 3 Yrotation Xrotation Zrotation
                    End Site
                    {
                      OFFSET -0.23542332000000088 -0.025003910029999243 0.0075583457949999905
                    }
                  }
                }
              }
              JOINT rightIndexProximal
              {
                OFFSET -0.8008568281999987 -0.09897839600000169 0.29462796
                CHANNELS 3 Yrotation Xrotation Zrotation
                JOINT rightIndexIntermediate
                {
                  OFFSET -0.30524754480000016 -0.024634122809999992 0.02743375304999998
                  CHANNELS 3 Yrotation Xrotation Zrotation
                  JOINT rightIndexDistal
                  {
                    OFFSET -0.23067378950000017 -0.016876459159999913 0.008484125099999983
                    CHANNELS 3 Yrotation Xrotation Zrotation
                    End Site
                    {
                      OFFSET -0.23067378950000017 -0.016876459159999913 0.008484125099999983
                    }
                  }
                }
              }
              JOINT rightThumbProximal
              {
                OFFSET -0.25574064999999935 -0.12833189930000155 0.22385698609999993
                CHANNELS 3 Yrotation Xrotation Zrotation
                JOINT rightThumbIntermediate
                {
                  OFFSET -0.22791743260000086 -0.07103586192999978 0.27385039
                  CHANNELS 3 Yrotation Xrotation Zrotation
                  JOINT rightThumbDistal
                  {
                    OFFSET -0.13610267659999975 -0.03369390969999997 0.14246511509999996
                    CHANNELS 3 Yrotation Xrotation Zrotation
                    End Site
                    {
                      OFFSET -0.13610267659999975 -0.03369390969999997 0.14246511509999996
                    }
                  }
                }
              }
            }
          }
        }
      }
      JOINT leftShoulder
      {
        OFFSET 0.6795338396 2.0665205 0
        CHANNELS 3 Yrotation Xrotation Zrotation
        JOINT leftUpperArm
        {
          OFFSET 0.7287383950230443 0 0
          CHANNELS 3 Yrotation Xrotation Zrotation
          JOINT leftLowerArm
          {
            OFFSET 1.9872997282019604 0 0
            CHANNELS 3 Yrotation Xrotation Zrotation
            JOINT leftHand
            {
              OFFSET 2.6451820781302327 0 0
              CHANNELS 3 Yrotation Xrotation Zrotation
              JOINT leftLittleProximal
              {
                OFFSET 0.8008804099999995 -0.09592306899999814 -0.2618342639000001
                CHANNELS 3 Yrotation Xrotation Zrotation
                JOINT leftLittleIntermediate
                {
                  OFFSET 0.2473981400000007 -0.02542352681000093 0.0023609995859999455
                  CHANNELS 3 Yrotation Xrotation Zrotation
                  JOINT leftLittleDistal
                  {
                    OFFSET 0.1636846068000002 -0.015794634789999318 -0.00043272972159996703
                    CHANNELS 3 Yrotation Xrotation Zrotation
                    End Site
                    {
                      OFFSET 0.1636846068000002 -0.015794634789999318 -0.00043272972159996703
                    }
                  }
                }
              }
              JOINT leftRingProximal
              {
                OFFSET 0.8393409199999996 -0.062242267999998324 -0.0921281570000001
                CHANNELS 3 Yrotation Xrotation Zrotation
                JOINT leftRingIntermediate
                {
                  OFFSET 0.3284471036000003 -0.03264224524000103 0.009405970574000042
                  CHANNELS 3 Yrotation Xrotation Zrotation
                  JOINT leftRingDistal
                  {
                    OFFSET 0.1944779099999996 -0.021732211159998904 0.003073036670000001
                    CHANNELS 3 Yrotation Xrotation Zrotation
                    End Site
                    {
                      OFFSET 0.1944779099999996 -0.021732211159998904 0.003073036670000001
                    }
                  }
                }
              }
              JOINT leftMiddleProximal
              {
                OFFSET 0.8473005200000001 -0.06736028199999788 0.1054214809999999
                CHANNELS 3 Yrotation Xrotation Zrotation
                JOINT leftMiddleIntermediate
                {
                  OFFSET 0.3450455799999995 -0.024824261000000014 0.019013225990000007
                  CHANNELS 3 Yrotation Xrotation Zrotation
                  JOINT leftMiddleDistal
                  {
                    OFFSET 0.2354259489999998 -0.025005222000000327 0.0075590014499999705
                    CHANNELS 3 Yrotation Xrotation Zrotation
                    End Site
                    {
                      OFFSET 0.2354259489999998 -0.025005222000000327 0.0075590014499999705
                    }
                  }
                }
              }
              JOINT leftIndexProximal
              {
                OFFSET 0.8008594516999996 -0.09898495199999946 0.29463124239999994
                CHANNELS 3 Yrotation Xrotation Zrotation
                JOINT leftIndexIntermediate
                {
                  OFFSET 0.30524754480000016 -0.024632811499998963 0.02743047472
                  CHANNELS 3 Yrotation Xrotation Zrotation
                  JOINT leftIndexDistal
                  {
                    OFFSET 0.23067378950000017 -0.016876459159999913 0.008481502700000004
                    CHANNELS 3 Yrotation Xrotation Zrotation
                    End Site
                    {
                      OFFSET 0.23067378950000017 -0.016876459159999913 0.008481502700000004
                    }
                  }
                }
              }
              JOINT leftThumbProximal
              {
                OFFSET 0.25574326469999953 -0.12833321050000013 0.22385764169999997
                CHANNELS 3 Yrotation Xrotation Zrotation
                JOINT leftThumbIntermediate
                {
                  OFFSET 0.22804987480000094 -0.07138466829999968 0.273648441
                  CHANNELS 3 Yrotation Xrotation Zrotation
                  JOINT leftThumbDistal
                  {
                    OFFSET 0.13614857189999907 -0.033867001519998885 0.14238119169999996
                    CHANNELS 3 Yrotation Xrotation Zrotation
                    End Site
                    {
                      OFFSET 0.13614857189999907 -0.033867001519998885 0.14238119169999996
                    }
                  }
                }
              }
            }
          }
        }
      }
    }
  }
  JOINT rightUpperLeg
  {
    OFFSET -0.9749898906000001 -1.8495733739999998 0
    CHANNELS 3 Yrotation Xrotation Zrotation
    JOINT rightLowerLeg
    {
      OFFSET 0 -4.1566544686813165 0
      CHANNELS 3 Yrotation Xrotation Zrotation
      JOINT rightFoot
      {
        OFFSET 0.14539718599999998 -4.225553926 -0.3666210900000001
        CHANNELS 3 Yrotation Xrotation Zrotation
        JOINT rightToes
        {
          OFFSET 0.1706738473 -0.9584117400000015 1.0093348617
          CHANNELS 3 Yrotation Xrotation Zrotation
          End Site
          {
            OFFSET 0.1706738473 -0.9584117400000015 1.0093348617
          }
        }
      }
    }
  }
  JOINT leftUpperLeg
  {
    OFFSET 0.9749898906000001 -1.8495733739999998 0
    CHANNELS 3 Yrotation Xrotation Zrotation
    JOINT leftLowerLeg
    {
      OFFSET 0 -4.156653488267941 0
      CHANNELS 3 Yrotation Xrotation Zrotation
      JOINT leftFoot
      {
        OFFSET -0.14537357999999995 -4.225555399999999 -0.36661124279999996
        CHANNELS 3 Yrotation Xrotation Zrotation
        JOINT leftToes
        {
          OFFSET -0.17066467000000002 -0.9584157000000019 1.0093348617
          CHANNELS 3 Yrotation Xrotation Zrotation
          End Site
          {
            OFFSET -0.17066467000000002 -0.9584157000000019 1.0093348617
          }
        }
      }
    }
  }
}
MOTION
Frames: 4
Frame Time: 0.03333333333333333
0.02170536294579506 -0.06190662320068441 0.013650456443428993 -5.650501227749264 -0.6895327253674307 -1.1617754257145776 1.2970335708089495 1.1129150505402379 -1.035836451409394 0.6979699346707813 0.5726956583702578 -0.9165293180723055 -0.005681425701184427 2.760629431596431 3.2170470207624398 8.559384798327724 13.522290654178356 6.662976823111454 0 0 0 0 0 0 0 0 0 1.2246257034077628 0.5203162349862085 6.566212423890592 17.790102889317726 -44.036465065130486 32.423018396288676 127.48774611250498 1.190557229837288 -0.587238560027618 16.662232902386492 -18.035564200786588 -2.3779399080690844 -0.0925969656501156 -0.502739590071758 12.068833188187018 -0.6088248473603503 0.03549755259935783 10.32443998187453 -0.7259670667214454 0.04028581974588774 9.797593697546555 -0.9185874695788618 -0.045605701507260406 3.6818366725889025 -0.6881241732455589 0.057662447728717175 9.72607678868576 -0.11771973764313472 0.0019492348540061516 1.5312170922162902 -3.041737812269702 0.11030468838615974 6.547310434398517 -0.47593117083454084 0.03621545631452217 8.394662688609833 -0.4042397059131903 0.016955426261241646 5.372395845799338 -8.80511011797355 1.798695978383061 16.11296710168039 -0.0565113329580067 0.0007084776196404505 1.252762578607063 0.19957928078006126 0.005633169762208576 -3.0632976905321136 -47.80630750424077 -33.41279134829135 53.737162513394054 3.727045519276236 1.514305859287327 -26.878640394708572 0.00551112251317534 0.047367027114103205 -0.6616980129448156 1.7516553183289931 0.667456486200134 -11.728002782921866 -37.10675944686809 16.494695581837025 -60.97266826306346 -32.72700088253759 0.11743850156241703 0.4001641631254155 -1.5921545440689295 -0.10058136401694268 -11.10920680045053 7.484587318437918 4.967464858085207 -87.90410233212107 4.79445274045854 4.088645057434372 -75.93209520897034 4.816638523609582 4.081205584244401 -75.93244094575364 7.377963884084552 4.098866474685713 -80.73648412199323 5.130743285746138 5.135663191716143 -90.03938949563204 5.127479320327972 5.31378547349001 -92.03167423525278 7.312383931845547 3.8326116185857138 -77.73185317648372 5.116862180406408 4.700615307587615 -85.19269759215535 5.126540435059208 4.880760455852912 -87.1836960251412 8.86147271134574 6.803842296913501 -63.66715621302265 4.991700576841463 3.9234369919826673 -76.29864328715173 4.452917928562743 2.5961026999536 -60.39758252832075 9.37251195547088 11.468980684230432 12.316753523227426 8.301001535910887 15.986098841833464 8.970803503618637 10.714208806546505 -1.2460825736467571 6.026405874726367 -12.661701808433547 0.6713316557239065 3.046144030508963 -2.5357078202502037 5.6536324684457435 -3.7197627186712885 -0.19902144443709877 -5.582560192621636 2.5621890030288936 0.000009384966858948872 -0.24565749745337595 -1.739226594918345e-7 14.237088387895158 0.6417714307014725 -1.9745680763513058 -4.270323495046645 8.632856905830975 2.849589766459321 0.023751032456600492 -7.94157642710948 -0.2366710853144208 -0.0000014188316330944573 -0.06298130041197707 8.405276586077911e-8
0.022395838052034378 -0.06162338192871175 0.012404830195009708 -5.64827719689662 -0.685607485201326 -1.1681464529063499 1.2995694701149294 1.1376295204137594 -1.009523848757815 0.6985096014702548 0.5723058378801111 -0.913050600477658 -0.008350062103944008 2.7683400836829195 3.221766301123459 8.555515302767464 13.521566209684075 6.603641806569651 0 0 0 0 0 0 0 0 0 1.2061201698908084 0.5187261762881424 6.5082375303744495 17.711036916438616 -43.57816460148321 32.41604840181628 127.59421845583768 1.1916646000930606 -0.5864049602861386 17.036098020480534 -18.27847409873853 -2.7089645925171797 -0.11271814611248179 -0.505240549919208 12.192715716568408 -0.6200077719566954 0.037095883886978896 10.489325434913312 -0.7166950597707188 0.03893516618998593 9.660769398426266 -1.021415914020535 -0.0350252122452781 3.523770614484451 -0.6945356971030208 0.058784346899809464 9.821046914403645 -0.12434783054390636 0.002161606462949716 1.6279992235173966 -3.000433389868423 0.10722725573290522 6.91253155712878 -0.48501571698711754 0.03748143280603193 8.528516489092567 -0.4096088974484271 0.01745139873595285 5.4511676596992675 -8.990637917172604 1.9112588716839016 16.648883969314646 -0.060594033136587254 0.0007903254035608527 1.3123227142201332 0.19693110878641426 0.0054816991442223975 -3.024525182611336 -48.04876947015458 -33.839660779883914 54.00207218544216 3.7459489030951576 1.5502899186790904 -26.844469043390394 -0.01885194859864346 -0.07353435038968008 -0.9398150619117139 1.7508425510662242 0.6669888533384271 -11.718595322923086 -37.119571149228435 16.446236198964407 -60.99288420338585 -32.69195771508665 0.11719828383934372 0.3997795228337539 -1.5922842559675618 -0.10016750327695285 -11.109254194207736 7.484599170747945 4.967383443804099 -87.90408557984492 4.794472930806603 4.0887276568164586 -75.9330327227387 4.816661562024458 4.081302305940839 -75.93336848560422 7.3779625955372765 4.098792861868447 -80.73650520585849 5.1307444160888585 5.136369108577349 -90.04722871210758 5.127460071073672 5.31449373471895 -92.03951907712684 7.312377555105738 3.8325761075627414 -77.73229484968961 5.117009038899357 4.702357746035446 -85.21211015325306 5.126618653056059 4.882493927874621 -87.20314254963426 8.864292058435677 6.806997449557439 -63.651787171235064 4.991874868340921 3.9240651342053634 -76.30575705796211 4.453212361391314 2.5966317289184997 -60.40442320770541 9.38311042561319 11.473250314360449 12.318279132309629 8.309967510448969 16.00903492930069 8.963587911632716 10.713862873322178 -1.24260006345976 6.021303899920896 -12.661425436573724 0.6874964349196381 3.0506595807026575 -2.535259357357417 5.600481651282178 -3.714329222317402 -0.19819955216408977 -5.547912962165624 2.5601802593346212 0.000009384966858948872 -0.24565749745337595 -1.739226594918345e-7 14.237234688304284 0.6337457814059062 -1.9776275997149075 -4.271967951683871 8.624736963408242 2.857797569432735 0.023755178188964207 -7.930051961515029 -0.236817131581423 0.0000015488825050919895 -0.06298773706874615 -5.215009006291106e-7
0.023993421345949173 -0.06104354794433675 0.009487311355769634 -5.61328947069094 -0.6897840731925649 -1.1845285500621021 1.3093014335041468 1.2445622840277013 -0.9613220890353026 0.7031248040687023 0.5986093092812823 -0.9043841327105303 -0.01779765671484047 2.758966486229177 3.226595611280484 8.49011191785477 13.451042186264026 6.467914710428102 0 0 0 0 0 0 0 0 0 1.1764809154272853 0.5154512340157407 6.3814147884992805 17.37207472020564 -41.80538656335012 32.1007266459191 127.66746936597573 1.192400498791486 -0.58581298264576 18.347691662002493 -19.19308311289188 -3.4787226326457557 -0.0982894846671209 -0.5301852591883209 12.589971703355092 -0.6422952937348542 0.04036446365736664 10.818058137704655 -0.6994805565233496 0.036497651906793785 9.40701548241118 -1.2397684342590263 -0.01717489445633595 3.309862318043708 -0.7109589997214291 0.06168818608824603 10.064774683408428 -0.14189992257985395 0.0027980634507049386 1.884428585180162 -2.895389741774294 0.09642302664633307 7.920507177034089 -0.5068365603869367 0.04058219600180398 8.85034035883679 -0.4246626853495877 0.01891433494993205 5.6720600247013255 -9.400684545430183 2.184753240890859 17.929166095182463 -0.072046454044144 0.001038656703565778 1.4796146994036254 0.18792056952013603 0.005027246019204679 -2.8927947752055556 -48.95924062837731 -35.04330396786204 54.72165790040537 3.765103843857524 1.5862482193517211 -26.81371459082621 -0.07532958593637401 -0.3663944148641532 -1.6121877206429331 1.7614550876617652 0.6669526722287609 -11.714228941213882 -37.032941627730274 16.1854995394946 -60.98062048713766 -32.51413642690928 0.11596335106450928 0.3978394835796488 -1.6430962187603164 0.09990158573138296 -11.118762774716636 7.484590270675577 4.967444290265873 -87.90409333971945 4.794407236496944 4.088352749844877 -75.92894636261924 4.816580218421374 4.080926974467116 -75.9292389812268 7.377964732960721 4.098849355425279 -80.73648551794915 5.130727665059416 5.1382078392269355 -90.06789661377165 5.127394078654741 5.316343277870458 -92.06023080588275 7.312397075848282 3.8325675506899564 -77.7317673799473 5.117125537992461 4.703700129070676 -85.22723467829456 5.126697222490099 4.883834094188863 -87.21823799905964 8.86675750783641 6.813773423852783 -63.66180823416616 4.992140545657376 3.925171658370679 -76.31855075145877 4.453776091621133 2.597614150823078 -60.416999348741676 9.374607855231648 11.469818749773404 12.317054515076979 8.342520428348802 16.068590117291684 8.910474479857164 10.714483803185091 -1.2490756530712075 6.0307804908285405 -12.659886461786803 0.7410145938152769 3.0590501458203927 -2.5645378296304857 5.477018996449331 -3.7012858687463073 -0.19647408337832334 -5.471158862523655 2.555897895859835 0.000009384966858948872 -0.24565749745337595 -1.739226594918345e-7 14.237748516081131 0.6190018836321566 -1.985386392709334 -4.303605207450102 8.62355909835218 2.8867174193669625 0.02402820622876206 -7.910277768523465 -0.24209750853352094 -9.905095901743015e-7 -0.06297579757069843 1.8042990856931844e-7
0.027156127616763115 -0.059875296906739095 0.0036595959682017565 -5.47858423177655 -0.734054267839336 -1.2153075843119774 1.3535116286419786 1.530259127678731 -0.9234815622610705 0.7290206182187648 0.7207922800009844 -0.8943269631903319 -0.039098338886449986 2.673232398907466 3.207255421144931 8.229062049545293 13.00523140841683 6.188804145964328 0 0 0 0 0 0 0 0 0 1.1898905149525987 0.5136405739020847 6.279358596817876 16.521290645769927 -35.44589236902808 30.115305414846326 126.61309199883868 1.181551403467202 -0.5940598467800039 22.76590663062159 -19.475868657781056 -6.269744796008182 -0.06372085642655967 -0.5685402960426684 13.134301739415664 -0.6576617945914175 0.04270843645323768 11.044779579602322 -0.6601175348353973 0.03119797113294273 8.827285280864887 -1.537359619967344 0.005640561074133038 2.9496170375449844 -0.7323239366395555 0.06558673240585099 10.381924609120572 -0.16656221595036583 0.003812321114371208 2.244884634558143 -2.6470800063983475 0.05569844054599433 9.467075064510036 -0.544009502795939 0.046175642289693376 9.399168812440713 -0.4534484423531756 0.02185124644308122 6.09456149893443 -10.121401367964683 2.6843337689486986 19.92691594931174 -0.09470089657541486 0.0016266880915624179 1.8106575326233993 0.16799189047865892 0.004062937030671145 -2.601334288530108 -51.00144986347814 -37.26110422004555 56.13845705971069 3.7962801914928277 1.644891204711383 -26.762609863830896 -0.15882443941539232 -0.8379286614681114 -2.69123806976875 1.8226671281519806 0.6671788842152454 -11.694985474323296 -36.72531080601786 15.31120037876456 -60.855966507658835 -31.90236048907376 0.11174084507708847 0.3911474282145342 -1.9043979526604426 1.1261361247940684 -11.170356196532428 7.48461364596133 4.968185160662935 -87.90403819913821 4.794153567182685 4.087186944354907 -75.91558703239392 4.816336188080713 4.079770167162951 -75.91593125621702 7.378075391631096 4.0995966114844435 -80.73642630505137 5.130726883478709 5.137075026220335 -90.05520431429655 5.127437712188632 5.315212286289531 -92.04751297852609 7.311441590616449 3.8293779823210548 -77.68623006093613 5.117199547235602 4.704575634907767 -85.23705478687101 5.126722189540834 4.884716257556344 -87.228082014455 8.877465795893865 6.820372792931158 -63.57150541025213 4.991834162482854 3.923876862644903 -76.30372205361041 4.453089614100147 2.5964014004485594 -60.40134346908035 9.333816263995748 11.453376741192631 12.31131219962642 8.431817570870708 16.22626487088161 8.743010353219596 10.717367290921619 -1.2798419417659361 6.075721064626318 -12.65387014430185 0.8926040524160234 3.0629976565092556 -2.68935793574114 5.223412067841592 -3.6720779121371057 -0.19336347858813585 -5.323158425035294 2.5479098063098453 0.000009384966858948872 -0.24565749745337595 -1.739226594918345e-7 14.239220555676509 0.6213499520705087 -1.9994723763234967 -4.429779598724966 8.63033791745059 2.953874530865034 0.024731547165520704 -7.872186240780086 -0.2568018279295801 7.100580854202068e-7 -0.06298130041197707 3.252173805783611e-8
